<svg width="215" height="215" viewBox="0 0 215 215" fill="none" xmlns="http://www.w3.org/2000/svg">
<g clip-path="url(#clip0_16_53)">
<path d="M75.8319 63.0141L98.5911 113.569V113.54L100.388 117.515C110.4 139.711 115.773 151.608 115.791 151.622L119.162 151.783C124.703 151.961 131.571 152.459 136.775 152.941C137.971 153.059 139.003 153.087 139.078 153.059L114.429 98.2653L102.807 72.5346C101.441 69.4628 100.056 66.3963 98.6522 63.3352L98.5012 62.9972H75.8534L75.8319 63.0141ZM116.596 63.0451L116.538 82.9677L116.502 102.904L114.407 98.2682L111.712 142.617C114.371 148.502 115.791 151.639 115.812 151.653C115.834 151.668 117.347 151.755 119.162 151.814C124.721 152.006 131.571 152.49 136.793 152.989C137.989 153.09 139.039 153.135 139.096 153.09C139.172 153.062 139.19 132.742 139.19 107.994L139.154 63.0451H116.596ZM75.8319 63.0141V108.037C75.8319 132.801 75.8678 153.09 75.9073 153.118C75.9469 153.146 77.8911 153 80.2486 152.794C82.6515 152.558 85.0597 152.357 87.472 152.191C89.9625 152 97.3908 151.62 98.2533 151.62C98.4976 151.62 98.5156 150.608 98.5516 132.548L98.5875 113.462L100.402 117.453L101.038 118.861L103.77 74.5429L102.853 72.4895L98.4905 63.0113L75.8319 63.0141Z" fill="white"/>
</g>
<rect x="4" y="4" width="207" height="207" rx="29" stroke="white" stroke-width="8"/>
<defs>
<clipPath id="clip0_16_53">
<rect width="115" height="90.1351" fill="white" transform="translate(50 63)"/>
</clipPath>
</defs>
</svg>
