<svg width="215" height="215" viewBox="0 0 215 215" fill="none" xmlns="http://www.w3.org/2000/svg">
<path d="M181.111 46.0331L182.414 44.0689L183.925 45.5802L187.156 40.9253L185.558 39.3269L187.151 36.9244L184.073 33.851L181.673 35.4398L180.079 33.8438L175.413 37.0673L176.929 38.5834L174.964 39.8815L174.422 42.9476L173.124 43.8073L169.881 40.562L171.242 39.2009L166.817 37.1666L164.524 39.4649L166.553 43.8897L167.914 42.5286L170.76 45.3767L166.294 48.3435L160.971 43.0227L158.999 44.9916L165.071 51.0681L136.51 77.5901C131.598 72.9909 124.221 67.1688 116.505 67.1688C110.189 67.1688 104.895 70.942 100.773 78.3724C100.046 79.6777 99.557 81.2035 99.0872 82.6785C97.6922 87.033 96.4861 89.8133 92.1485 90.1984L56.0868 54.1366L44.2293 59.0313L47.7095 62.5139L49.8117 64.6161L52.6017 67.4085V67.4061L88.2904 103.095C87.7345 104.165 86.9368 105.092 85.9606 105.8C82.6693 108.266 79.9059 109.518 77.7432 109.518C76.5783 109.518 74.866 109.191 73.4879 106.372C72.8437 105.061 71.4947 103.662 69.642 103.662C65.6193 103.662 64.7619 109.636 64.481 111.591C64.3211 112.685 63.3379 115.274 57.6828 115.652C50.8047 116.115 45.5104 119.987 43.1491 126.27C39.9595 134.773 41.8994 149.212 56.9223 164.233C66.5372 173.85 77.1619 179.142 86.8397 179.147H86.8446C97.094 179.147 104.587 172.876 105.486 163.547C106.057 157.631 108.746 156.793 109.552 156.676C112.698 156.224 116.941 155.257 117.447 152.063C117.721 150.326 116.677 148.599 114.774 147.667C113.059 146.824 112.071 145.785 111.754 144.482C111.211 142.252 112.415 139.137 115.384 135.146C116.08 134.186 116.987 133.399 118.036 132.845L148.14 162.949L153.577 168.386L158.476 173.286L161.957 176.766L166.856 164.908L130.952 129.007C131.366 124.352 134.556 123.325 138.469 122.073C139.947 121.6 141.472 121.114 142.78 120.385C149.358 116.735 153.08 112.141 153.836 106.725C155.035 98.1639 148.484 89.869 143.417 84.49L170.535 55.2822L171.571 56.3188L173.453 53.4852L176.633 56.6651L175.275 58.0262L179.699 60.0606L181.993 57.7622L179.958 53.3374L178.6 54.6961L175.023 51.1166L176.972 48.1813L184.272 55.4832L186.241 53.5118L179.12 46.3866L181.111 46.0331ZM103.623 84.1364C104.045 82.8238 104.442 81.5838 104.936 80.6877C108.203 74.8001 111.988 71.9374 116.505 71.9374C122.427 71.9374 128.649 76.7957 133.008 80.8451L106.97 105.028L96.0816 94.1388C100.993 92.2206 102.541 87.5174 103.623 84.1364ZM117.98 127.788L110.085 119.893L112.056 117.919L112.223 118.086L113.572 116.633L124.481 127.541C123.543 127.362 122.592 127.268 121.637 127.26C120.399 127.26 119.168 127.438 117.98 127.788ZM85.5077 139.098L104.895 119.709L106.682 121.496L87.295 140.883L85.5077 139.098ZM97.1133 113.083C97.2102 112.804 97.2756 112.47 97.3095 112.124L98.6149 113.429L97.5033 114.541C97.5516 114.284 97.5417 114.02 97.4742 113.767C97.4067 113.515 97.2834 113.281 97.1133 113.083ZM99.5182 114.332L101.301 116.115L81.9161 135.504L80.1336 133.722L99.5182 114.332ZM105.776 111.642L103.805 113.613L102.022 111.831L103.994 109.857L105.776 111.642ZM111.158 117.021L109.184 118.992L107.399 117.207L109.37 115.233L111.158 117.021ZM106.496 116.306L104.706 114.516L106.677 112.543L108.467 114.332L106.496 116.306ZM102.204 117.018L103.994 118.808L84.6068 138.195L82.8194 136.41L102.204 117.018ZM107.583 122.395L108.891 123.703C108.563 123.732 108.24 123.798 107.927 123.901C107.728 123.731 107.494 123.607 107.241 123.54C106.988 123.472 106.724 123.463 106.467 123.511L107.583 122.395ZM102.926 108.786L103.091 108.953L101.119 110.925L93.3546 103.16C93.9367 101.064 94.0418 98.8631 93.6622 96.7205L104.379 107.437L102.926 108.786ZM58.4772 61.5403L86.9439 90.007L85.6603 89.9174L87.6995 93.7246C87.7915 93.8942 88.9758 96.1804 89.1115 98.922L55.1035 64.9116L58.4772 61.5403ZM47.615 127.955C49.3128 123.431 53.0037 120.75 58.0049 120.419C67.38 119.786 68.9421 114.037 69.1964 112.283C69.3756 111.027 69.5839 110.138 69.7728 109.52C72.1075 113.429 75.3504 114.291 77.7456 114.291C82.5845 114.289 87.2757 110.777 88.862 109.588C90.0923 108.668 91.015 107.641 91.7513 106.568L94.2797 109.096C87.9538 108.663 79.4433 124.696 75.7379 120.993C74.8127 120.06 75.05 119.246 75.3043 118.801C75.5681 118.841 75.8376 118.82 76.0919 118.739C76.3461 118.658 76.5781 118.519 76.7696 118.333C76.9324 118.171 77.0617 117.978 77.1499 117.765C77.2382 117.553 77.2837 117.325 77.2839 117.095C77.2841 116.865 77.239 116.637 77.1512 116.424C77.0634 116.212 76.9345 116.019 76.772 115.856C76.6095 115.693 76.4165 115.564 76.204 115.475C75.9915 115.387 75.7638 115.342 75.5337 115.341C75.3036 115.341 75.0758 115.386 74.8632 115.474C74.6505 115.562 74.4573 115.691 74.2944 115.853C74.0219 116.133 73.8517 116.497 73.8113 116.885C73.7709 117.274 73.8626 117.664 74.0716 117.994C73.5654 118.735 72.5894 120.632 74.3453 122.385C80.3564 128.399 91.5939 107.752 95.4204 111.581C95.6699 111.828 95.6917 112.196 95.6554 112.518C95.2475 112.543 94.8624 112.715 94.5704 113C94.2423 113.329 94.0581 113.774 94.0581 114.238C94.0581 114.702 94.2423 115.147 94.5704 115.475C94.7714 115.672 95.0176 115.817 95.2874 115.896C95.5573 115.975 95.8424 115.987 96.1179 115.931L79.2302 132.823L77.656 131.249C77.656 131.249 74.6601 136.25 73.9796 138.064C73.3644 139.689 73.2675 143.317 72.4296 144.836C70.3613 148.573 62.2286 155.822 58.5256 159.018C46.7286 146.277 45.1835 134.429 47.615 127.955ZM111.504 132.385C110.09 134.289 105.781 140.079 107.125 145.613C107.707 148.013 109.225 149.953 111.642 151.394C110.735 151.655 109.81 151.847 108.874 151.968C107.196 152.213 101.649 153.729 100.744 163.099C100.073 170.067 94.7447 174.392 86.8446 174.392H86.8422C82.2115 174.392 73.0036 172.782 61.9937 162.506C65.1882 158.805 72.4417 150.658 76.1786 148.592C77.6996 147.749 81.33 147.653 82.9526 147.037C84.769 146.359 89.7678 143.361 89.7678 143.361L88.1936 141.787L105.084 124.894C105.028 125.169 105.04 125.454 105.119 125.723C105.199 125.993 105.343 126.239 105.539 126.439C105.702 126.603 105.895 126.732 106.108 126.821C106.32 126.909 106.549 126.955 106.779 126.955C107.01 126.955 107.238 126.909 107.451 126.821C107.663 126.732 107.857 126.603 108.019 126.439C108.302 126.149 108.472 125.766 108.496 125.362C108.813 125.318 109.182 125.347 109.429 125.589C113.262 129.418 92.6183 140.665 98.6294 146.681C100.385 148.435 102.282 147.456 103.02 146.95C103.35 147.16 103.74 147.252 104.129 147.21C104.517 147.168 104.879 146.995 105.156 146.72C105.32 146.558 105.45 146.366 105.538 146.154C105.627 145.941 105.673 145.714 105.673 145.484C105.673 145.254 105.627 145.026 105.538 144.814C105.45 144.602 105.32 144.409 105.156 144.247C104.994 144.084 104.801 143.955 104.589 143.867C104.377 143.779 104.149 143.733 103.919 143.733C103.689 143.733 103.461 143.779 103.249 143.867C103.036 143.955 102.843 144.084 102.681 144.247C102.495 144.438 102.357 144.67 102.275 144.924C102.194 145.178 102.173 145.447 102.214 145.71C101.766 145.972 100.952 146.214 100.027 145.282C96.3238 141.576 112.357 133.063 111.918 126.732L114.582 129.396C113.399 130.217 112.359 131.226 111.504 132.385ZM122.248 132.058C124.049 132.194 125.808 132.67 127.433 133.46L131.254 135.538L131.16 134.221L159.457 162.516L156.081 165.889L150.642 160.45H150.639L122.248 132.058ZM149.121 106.064C148.581 109.917 145.669 113.332 140.467 116.217C139.571 116.715 138.331 117.113 137.016 117.534C133.606 118.626 128.925 120.167 127.019 125.071L115.982 114.034L140.167 87.9896C144.597 92.7292 150.019 99.6558 149.121 106.064Z" fill="white"/>
<rect x="4" y="4" width="207" height="207" rx="29" stroke="white" stroke-width="8"/>
</svg>
