<svg width="50" height="50" viewBox="0 0 50 50" fill="none" xmlns="http://www.w3.org/2000/svg">
<path d="M32.5684 25L46.0449 11.5234C48.6816 15.6575 50 20.1497 50 25C50 29.8502 48.6816 34.3424 46.0449 38.4765L32.5684 25ZM5.81055 8.98434C8.1543 6.18487 10.9945 3.9876 14.3311 2.39255C17.6676 0.797495 21.224 -3.05176e-05 25 -3.05176e-05C28.776 -3.05176e-05 32.3324 0.797495 35.6689 2.39255C39.0055 3.9876 41.8457 6.18487 44.1895 8.98434L25 28.1738L5.81055 8.98434ZM3.95508 38.4765C1.31836 34.3424 0 29.8502 0 25C0 20.1497 1.31836 15.6575 3.95508 11.5234L17.4316 25L3.95508 38.4765ZM19.6289 27.1972L23.0957 30.7129C23.291 30.8756 23.5433 31.0058 23.8525 31.1035C24.1618 31.2011 24.4303 31.25 24.6582 31.25H25C25.8464 31.2825 26.4811 31.1035 26.9043 30.7129L30.3711 27.1972L44.1895 41.0156C41.8457 43.8151 39.0055 46.0123 35.6689 47.6074C32.3324 49.2024 28.776 50 25 50C21.224 50 17.6676 49.2024 14.3311 47.6074C10.9945 46.0123 8.1543 43.8151 5.81055 41.0156L19.6289 27.1972Z" fill="white"/>
</svg>
