<svg width="53" height="53" viewBox="0 0 53 53" fill="none" xmlns="http://www.w3.org/2000/svg">
<path d="M34.7501 26.5C34.7501 28.688 33.8809 30.7864 32.3337 32.3336C30.7866 33.8808 28.6881 34.75 26.5001 34.75C24.3121 34.75 22.2136 33.8808 20.6665 32.3336C19.1193 30.7864 18.2501 28.688 18.2501 26.5C18.2501 26.0297 18.2996 25.5705 18.3848 25.125H15.5001V36.1167C15.5001 36.8812 16.1188 37.5 16.8833 37.5H36.1196C36.486 37.4992 36.8371 37.3532 37.0959 37.0939C37.3547 36.8345 37.5001 36.4831 37.5001 36.1167V25.125H34.6153C34.7006 25.5705 34.7501 26.0297 34.7501 26.5ZM26.5001 32C27.2225 31.9998 27.9379 31.8573 28.6053 31.5807C29.2727 31.304 29.879 30.8987 30.3898 30.3877C30.9005 29.8767 31.3056 29.2701 31.5819 28.6026C31.8582 27.9351 32.0003 27.2197 32.0001 26.4972C31.9999 25.7748 31.8574 25.0594 31.5808 24.392C31.3042 23.7247 30.8988 23.1183 30.3878 22.6076C29.8768 22.0968 29.2703 21.6918 28.6027 21.4155C27.9352 21.1392 27.2198 20.997 26.4973 20.9972C25.0383 20.9976 23.6391 21.5775 22.6077 22.6095C21.5762 23.6415 20.997 25.0409 20.9973 26.5C20.9977 27.959 21.5777 29.3582 22.6096 30.3896C23.6416 31.4211 25.041 32.0003 26.5001 32ZM33.1001 20.725H36.3974C36.6164 20.725 36.8265 20.6381 36.9817 20.4835C37.1368 20.3289 37.2244 20.119 37.2251 19.9V16.6027C37.2251 16.3832 37.1379 16.1727 36.9827 16.0174C36.8274 15.8622 36.6169 15.775 36.3974 15.775H33.1001C32.8806 15.775 32.67 15.8622 32.5148 16.0174C32.3596 16.1727 32.2724 16.3832 32.2724 16.6027V19.9C32.2751 20.3537 32.6463 20.725 33.1001 20.725ZM26.5001 0.0999756C19.4984 0.0999756 12.7834 2.8814 7.83248 7.83236C2.88152 12.7833 0.100098 19.4983 0.100098 26.5C0.100098 33.5017 2.88152 40.2166 7.83248 45.1676C12.7834 50.1186 19.4984 52.9 26.5001 52.9C29.967 52.9 33.3999 52.2171 36.6029 50.8904C39.8059 49.5637 42.7163 47.6191 45.1677 45.1676C47.6192 42.7161 49.5638 39.8058 50.8905 36.6028C52.2172 33.3998 52.9001 29.9669 52.9001 26.5C52.9001 23.0331 52.2172 19.6001 50.8905 16.3971C49.5638 13.1941 47.6192 10.2838 45.1677 7.83236C42.7163 5.38089 39.8059 3.43628 36.6029 2.10956C33.3999 0.782832 29.967 0.0999756 26.5001 0.0999756ZM40.2501 37.1947C40.2501 38.875 38.8751 40.25 37.1948 40.25H15.8053C14.1251 40.25 12.7501 38.875 12.7501 37.1947V15.8052C12.7501 14.125 14.1251 12.75 15.8053 12.75H37.1948C38.8751 12.75 40.2501 14.125 40.2501 15.8052V37.1947Z" fill="white"/>
</svg>
