<svg width="38" height="39" viewBox="0 0 38 39" fill="none" xmlns="http://www.w3.org/2000/svg">
<path d="M36.8333 19.674L35.8333 19.6739V19.674H36.8333ZM34.5884 14.4638L33.9015 15.1906L33.9016 15.1907L34.5884 14.4638ZM21.3784 1.97948L20.6914 2.70614L20.6916 2.70626L21.3784 1.97948ZM18.9167 1V2V1ZM16.4549 1.97948L17.1418 2.70626L17.1419 2.70614L16.4549 1.97948ZM3.24496 14.4638L3.93171 15.1907L3.93182 15.1906L3.24496 14.4638ZM1 19.674H2V19.6739L1 19.674ZM1 33.6956H5.96046e-08H1ZM37.8333 33.6956V19.674H35.8333V33.6956H37.8333ZM37.8333 19.6741C37.8335 18.5624 37.6066 17.4625 37.1667 16.4416L35.33 17.233C35.6622 18.0039 35.8334 18.8345 35.8333 19.6739L37.8333 19.6741ZM37.1667 16.4416C36.7269 15.4207 36.0832 14.5003 35.2751 13.7369L33.9016 15.1907C34.5118 15.7672 34.9978 16.4621 35.33 17.233L37.1667 16.4416ZM35.2752 13.737L22.0653 1.25269L20.6916 2.70626L33.9015 15.1906L35.2752 13.737ZM22.0654 1.25282C21.2144 0.448279 20.0878 0 18.9167 0V2C19.5767 2 20.2118 2.25267 20.6914 2.70614L22.0654 1.25282ZM18.9167 0C17.7456 0 16.6189 0.448279 15.7679 1.25282L17.1419 2.70614C17.6216 2.25267 18.2566 2 18.9167 2V0ZM15.7681 1.25269L2.5581 13.737L3.93182 15.1906L17.1418 2.70626L15.7681 1.25269ZM2.55821 13.7369C1.75017 14.5003 1.10649 15.4207 0.6666 16.4416L2.50335 17.233C2.83551 16.4621 3.32155 15.7672 3.93171 15.1907L2.55821 13.7369ZM0.6666 16.4416C0.226713 17.4625 -0.000118136 18.5624 5.96046e-08 19.6741L2 19.6739C1.99991 18.8345 2.17119 18.0039 2.50335 17.233L0.6666 16.4416ZM5.96046e-08 19.674V33.6956H2V19.674H5.96046e-08ZM5.96046e-08 33.6956C5.96046e-08 34.9111 0.482886 36.0769 1.34243 36.9365L2.75664 35.5223C2.27217 35.0378 2 34.3807 2 33.6956H5.96046e-08ZM1.34243 36.9365C2.20197 37.796 3.36776 38.2789 4.58333 38.2789V36.2789C3.89819 36.2789 3.24111 36.0067 2.75664 35.5223L1.34243 36.9365ZM4.58333 38.2789H33.25V36.2789H4.58333V38.2789ZM33.25 38.2789C34.4656 38.2789 35.6314 37.796 36.4909 36.9365L35.0767 35.5223C34.5922 36.0067 33.9352 36.2789 33.25 36.2789V38.2789ZM36.4909 36.9365C37.3505 36.0769 37.8333 34.9111 37.8333 33.6956H35.8333C35.8333 34.3807 35.5612 35.0378 35.0767 35.5223L36.4909 36.9365Z" fill="white"/>
</svg>
