<svg width="215" height="215" viewBox="0 0 215 215" fill="none" xmlns="http://www.w3.org/2000/svg">
<path d="M36.4586 43.9533L32.2305 48.0167L38.5215 54.0683L42.7436 50.005L36.4556 43.9533H36.4586ZM91.6364 43.9533L85.3453 50.005L89.5704 54.0683L95.8584 48.0196L91.6334 43.9533H91.6364ZM64.046 45.7567C63.055 45.7683 62.0521 45.8232 61.0431 45.9417C61.0131 45.9417 60.983 45.9359 60.953 45.9417C48.7733 47.2855 39.0801 56.756 37.3955 68.4259C36.0502 77.8184 40.074 86.3352 46.7794 91.8204C49.5223 94.0733 51.3775 97.1648 52.0345 100.577V117.917H58.881C59.926 119.642 61.8328 120.807 64.046 120.807C66.2591 120.807 68.1659 119.642 69.2109 117.917H76.0574V106.357H76.3397V102.924C76.3397 98.6871 78.6279 94.4156 82.3455 91.095C87.3182 86.3034 91.0718 79.4974 91.0718 71.68C91.0718 57.4034 78.8621 45.6238 64.046 45.7567ZM64.046 51.5367C75.6521 51.3806 85.0661 60.5246 85.0661 71.68C85.0661 77.7317 82.1533 83.0608 78.1204 86.9392L78.2165 87.0317C74.2088 90.5884 71.6173 95.3803 70.8895 100.58H57.7549C57.0943 95.6265 54.8872 90.832 50.7162 87.3929C45.4101 83.0579 42.2481 76.5265 43.3051 69.1512C44.6174 60.0477 52.2927 52.7274 61.6977 51.7245C62.4742 51.6204 63.2562 51.5586 64.04 51.5396L64.046 51.5367ZM22.0057 71.68V77.46H31.0144V71.68H22.0057ZM97.0776 71.68V77.46H106.086V71.68H97.0776ZM38.5215 95.0717L32.2335 101.12L36.4586 105.187L42.7406 99.135L38.5215 95.0717ZM89.5704 95.0717L85.3483 99.135L91.6334 105.187L95.8584 101.12L89.5704 95.0717ZM58.0402 106.36H70.0517V112.14H58.0402V106.36Z" fill="white"/>
<g clip-path="url(#clip0_16_51)">
<path d="M172.115 100H112.74C104.542 100 97.8965 105.666 97.8965 112.656V163.281C97.8965 170.271 104.542 175.938 112.74 175.938H172.115C180.313 175.938 186.959 170.271 186.959 163.281V112.656C186.959 105.666 180.313 100 172.115 100ZM126.1 146.828H122.31L114.763 135.272V146.828H111.256V129.109H114.933L122.592 140.94V129.109H126.1V146.828ZM146.881 146.828H132.037V129.109H146.51V132.105H135.977V136.034H145.774V139.019H135.977V143.839H146.881V146.828ZM171.622 146.828H167.261L163.21 133.581L159.17 146.828H154.711L149.85 129.109H154.059L157.129 141.278L160.849 129.109H165.737L169.305 141.486L172.431 129.109H176.568L171.622 146.828Z" fill="white"/>
</g>
<rect x="4" y="4" width="207" height="207" rx="29" stroke="white" stroke-width="8"/>
<defs>
<clipPath id="clip0_16_51">
<rect width="95" height="81" fill="white" transform="translate(97.8965 95)"/>
</clipPath>
</defs>
</svg>
