<svg width="323" height="320" viewBox="0 0 323 320" fill="none" xmlns="http://www.w3.org/2000/svg">
<path d="M269 0.224213L252.287 36.9146L215.333 53.509L252.287 70.1034L269 106.794L285.867 70.1034L322.667 53.509L285.867 36.9146L269 0.224213ZM154 15.4484C69.6667 15.4484 0.666687 83.9575 0.666687 167.691V319.933H307.333V167.691C307.333 145.311 302.273 123.997 293.533 104.815L274.52 146.225C275.747 153.228 276.667 160.079 276.667 167.691C276.667 235.134 221.927 289.485 154 289.485C86.0734 289.485 31.3334 235.134 31.3334 167.691V165.712C51.0767 158.368 69.0826 147.061 84.2262 132.497C99.3698 117.933 111.326 100.424 119.347 81.0649C133.728 98.6203 151.87 112.772 172.453 122.49C193.036 132.207 215.542 137.247 238.333 137.242C245.154 137.236 251.967 136.779 258.727 135.872L236.033 86.2411L163.2 53.509L217.327 29.1503C198.007 20.4724 176.54 15.4484 154 15.4484ZM108 163.885C102.917 163.885 98.0416 165.89 94.4472 169.459C90.8527 173.027 88.8334 177.868 88.8334 182.915C88.8334 187.962 90.8527 192.803 94.4472 196.371C98.0416 199.94 102.917 201.945 108 201.945C110.517 201.945 113.009 201.453 115.335 200.497C117.66 199.54 119.773 198.139 121.553 196.371C123.333 194.604 124.745 192.506 125.708 190.198C126.671 187.889 127.167 185.414 127.167 182.915C127.167 180.416 126.671 177.941 125.708 175.632C124.745 173.324 123.333 171.226 121.553 169.459C119.773 167.691 117.66 166.29 115.335 165.333C113.009 164.377 110.517 163.885 108 163.885ZM200 163.885C194.917 163.885 190.042 165.89 186.447 169.459C182.853 173.027 180.833 177.868 180.833 182.915C180.833 187.962 182.853 192.803 186.447 196.371C190.042 199.94 194.917 201.945 200 201.945C205.083 201.945 209.958 199.94 213.553 196.371C217.147 192.803 219.167 187.962 219.167 182.915C219.167 177.868 217.147 173.027 213.553 169.459C209.958 165.89 205.083 163.885 200 163.885Z" fill="white" fill-opacity="0.7"/>
</svg>
