<svg width="214" height="208" viewBox="0 0 214 208" fill="none" xmlns="http://www.w3.org/2000/svg">
<path d="M137.646 55.7083L109 18.9375L129.521 14.875L158.062 51.6458L137.646 55.7083ZM209.208 41.5417L201.083 0.708344L160.146 8.83334L188.687 45.7083L209.208 41.5417ZM27.3333 35.2917L17.1249 37.2708C11.7231 38.3724 6.97466 41.5621 3.91212 46.1461C0.849574 50.7302 -0.279379 56.338 0.770762 61.75L4.83326 82.1667L55.8749 72.0625L27.3333 35.2917ZM107.021 61.8542L78.4791 24.875L57.9582 29.1458L86.6041 65.9167L107.021 61.8542ZM4.83326 82.1667V186.333C4.83326 191.859 7.02819 197.158 10.9352 201.065C14.8422 204.972 20.1412 207.167 25.6666 207.167H127.854C122.542 198 119.417 187.375 119.417 175.917C119.417 141.437 147.437 113.417 181.917 113.417C193.375 113.417 204 116.542 213.167 121.854V82.1667H4.83326ZM161.083 207.167L213.167 175.917L161.083 144.667V207.167Z" fill="white"/>
</svg>
