<svg width="210" height="188" viewBox="0 0 210 188" fill="none" xmlns="http://www.w3.org/2000/svg">
<path d="M0.833252 10.5938C0.852315 7.85811 1.9468 5.23976 3.88026 3.30435C5.81373 1.36894 8.43096 0.271819 11.1666 0.25H198.833C204.542 0.25 209.167 4.88542 209.167 10.5938V177.406C209.148 180.142 208.053 182.76 206.12 184.696C204.186 186.631 201.569 187.728 198.833 187.75H11.1666C8.42506 187.747 5.79676 186.656 3.85918 184.717C1.92161 182.777 0.833251 180.148 0.833252 177.406V10.5938ZM90.6458 56.6562C90.0188 56.238 89.2902 55.9976 88.5375 55.9606C87.7848 55.9237 87.0361 56.0916 86.3712 56.4465C85.7064 56.8013 85.1502 57.3299 84.762 57.9758C84.3737 58.6218 84.168 59.3609 84.1666 60.1146V127.885C84.168 128.639 84.3737 129.378 84.762 130.024C85.1502 130.67 85.7064 131.199 86.3712 131.554C87.0361 131.908 87.7848 132.076 88.5375 132.039C89.2902 132.002 90.0188 131.762 90.6458 131.344L141.469 97.4688C142.04 97.0884 142.509 96.5727 142.833 95.9676C143.157 95.3624 143.327 94.6865 143.327 94C143.327 93.3135 143.157 92.6376 142.833 92.0324C142.509 91.4273 142.04 90.9116 141.469 90.5312L90.6353 56.6562H90.6458Z" fill="white"/>
</svg>
